<svg width="16" height="16" viewBox="0 0 16 16" fill="none" xmlns="http://www.w3.org/2000/svg">
<path fill-rule="evenodd" clip-rule="evenodd" d="M8.54857 2.47144C8.51191 2.2052 8.28031 2 8.00007 2C7.69436 2 7.44653 2.24421 7.44653 2.54545V12.1333L3.94577 8.6698L3.8838 8.61686C3.66743 8.45797 3.35987 8.47495 3.16294 8.6682C2.94632 8.88077 2.9456 9.22613 3.16132 9.43959L7.6003 13.8318C7.62573 13.858 7.65378 13.8816 7.68403 13.9024C7.9002 14.0511 8.20005 14.0301 8.39263 13.8396L12.8387 9.43955L12.8922 9.37826C13.0525 9.16439 13.034 8.8614 12.837 8.66817C12.6204 8.45561 12.2699 8.45636 12.0542 8.66983L8.55362 12.1342V2.54545L8.54857 2.47144Z" fill="#ED2C35"/>
</svg>
