<svg width="16" height="16" viewBox="0 0 16 16" fill="none" xmlns="http://www.w3.org/2000/svg">
<path fill-rule="evenodd" clip-rule="evenodd" d="M7.45143 13.5286C7.48809 13.7948 7.71969 14 7.99993 14C8.30564 14 8.55347 13.7558 8.55347 13.4545L8.55347 3.86671L12.0542 7.3302L12.1162 7.38314C12.3326 7.54203 12.6401 7.52505 12.8371 7.3318C13.0537 7.11923 13.0544 6.77387 12.8387 6.56041L8.39973 2.1682C8.37429 2.14203 8.34623 2.11836 8.31597 2.09758C8.0998 1.94891 7.79995 1.96987 7.60737 2.16045L3.16129 6.56045L3.10782 6.62174C2.9475 6.83561 2.96603 7.1386 3.16297 7.33183C3.37961 7.54439 3.7301 7.54364 3.9458 7.33017L7.44638 3.86585L7.44638 13.4545L7.45143 13.5286Z" fill="#7FC03C"/>
</svg>
